<svg xmlns="http://www.w3.org/2000/svg" viewBox="0 0 74 74"><circle cx="37" cy="37" r="37" fill="#2cd3b8"/><path d="M41.6 49h-3.4v-3h-2.4v3h-3.4c-.7 0-1.2.6-1.2 1.2 0 .7.5 1.2 1.2 1.2h9.2c.7 0 1.2-.6 1.2-1.2s-.5-1.2-1.2-1.2zM21 42v1.5c0 .5.4 1 1 1h30c.5 0 1-.4 1-1V42H21zm16-15.3c2.6 0 5 .7 7.1 2l.8-1.1c.3-.4.8-.4 1.1-.2.4.3.4.8.2 1.1l-.8 1.1c3.2 2.5 5.2 6.3 5.3 10.7H53V23.5c0-.5-.4-1-1-1H22c-.5 0-1 .4-1 1v16.9h2.3c.1-7.6 6.2-13.7 13.7-13.7zm7 13.1c-.1-.1-.1-.2-.1-.3-.3-1.8-1.2-3.3-2.5-4.3L39 38.5c.4.3.7.8.9 1.3H44zm-7-2h.5l2.6-3.5c-.9-.5-2-.7-3.1-.7-2 0-3.8.8-5.1 2.2 0 .1-.1.1-.1.2-.8 1-1.4 2.2-1.6 3.5 0 .1-.1.2-.1.3h4.1c.3-1.2 1.5-2 2.8-2zm12.1 2c-.2-3.6-2-6.7-4.6-8.8l-2.1 2.9.2.2c1.5 1.3 2.6 3.2 2.9 5.2 0 .2 0 .4-.1.6h3.7zm-21.9-6.4c-1.3 1.8-2.2 4-2.3 6.4h3.7c-.1-.2-.2-.4-.1-.6.2-1.3.8-2.6 1.6-3.7l-2.9-2.1zm4.2.6c1.4-1.2 3-1.9 4.8-2v-3.6c-3.1.2-5.9 1.6-7.9 3.7l2.9 2.1.2-.2zm11.7-3.9c-1.6-.9-3.4-1.5-5.3-1.6V32c1.1.1 2.2.4 3.2 1l2.1-2.9z" fill="#fff"/></svg>