<svg version="1.1" id="Слой_1" xmlns="http://www.w3.org/2000/svg" x="0" y="0" viewBox="0 0 50 50" xml:space="preserve"><style>.st0{fill:#363b66}</style><path class="st0" d="M43.4 28.5l-9.7-8.6c-.5-.5-1.3-.4-1.8.1s-.4 1.3.1 1.8l8.6 7.7-8.6 7.6c-.5.5-.6 1.3-.1 1.8.3.3.6.4 1 .4.3 0 .6-.1.9-.3l9.7-8.6c.3-.2.4-.6.4-1-.1-.3-.3-.7-.5-.9m-25.3-8.6c-.5-.5-1.3-.6-1.8-.1l-9.7 8.6c-.3.2-.4.6-.4 1s.2.7.4 1l9.7 8.6c.2.2.5.3.9.3s.7-.1 1-.4c.5-.5.4-1.3-.1-1.8l-8.6-7.7 8.6-7.7c.5-.4.5-1.2 0-1.8m10-.7c-.7-.2-1.4.2-1.6.9l-5.4 17.8c-.2.7.2 1.4.9 1.6.1 0 .2.1.4.1.6 0 1.1-.4 1.2-.9L29 20.9c.1-.8-.3-1.5-.9-1.7"/><path class="st0" d="M48.7 0H1.3C.6 0 0 .6 0 1.3v47.4c0 .7.6 1.3 1.3 1.3h47.4c.7 0 1.3-.6 1.3-1.3V1.3c0-.7-.6-1.3-1.3-1.3m-1.3 7.7h-5.1V2.6h5.1v5.1zM10.3 2.6h29.5v5.1H10.3V2.6zm-7.7 0h5.1v5.1H2.6V2.6zm0 7.7h44.9v37.2H2.6V10.3z"/></svg>