<svg version="1.1" id="Слой_1" xmlns="http://www.w3.org/2000/svg" x="0" y="0" viewBox="0 0 50 50" xml:space="preserve"><style>.st0{fill:#363b66}</style><path class="st0" d="M48.2 10c-1.1-1.1-2.7-1.8-4.3-1.8-1.6 0-3.1.6-4.3 1.8L36 13.6V1.7C36 1 35.4.4 34.7.4H12.1c-.4 0-.7.1-1 .4L.4 11.5c-.3.3-.4.6-.4 1v36.2c0 .7.6 1.3 1.4 1.3h33.3c.7 0 1.3-.6 1.3-1.3v-18l12.2-12.2c1.1-1.1 1.8-2.7 1.8-4.3 0-1.5-.6-3.1-1.8-4.2M23.3 38.3l-4.5 1.2L20 35l3.3 3.3zm2.6-1.2l-4.8-4.8 17.1-17.1L43 20 25.9 37.1zM10.8 5v6.2H4.6L10.8 5zm22.5 42.3H2.7V13.8h9.4c.7 0 1.3-.6 1.3-1.3V3.1h19.9v13.2l-15 15.1c-.2.2-.3.4-.4.6l-2.4 9c-.1.5 0 1 .4 1.3.3.3.6.4 1 .4h.3l9-2.4c.2-.1.5-.2.6-.4l6.5-6.5v13.9zm13-30.6l-1.4 1.4-4.8-4.8 1.4-1.4c.6-.6 1.5-1 2.4-1 .9 0 1.7.3 2.4 1 .6.6 1 1.5 1 2.4 0 .9-.3 1.7-1 2.4"/><path class="st0" d="M11.4 40.1H7.5c-.7 0-1.3.6-1.3 1.3 0 .7.6 1.3 1.3 1.3h3.9c.7 0 1.3-.6 1.3-1.3.1-.7-.5-1.3-1.3-1.3m.7-5.4H7.5c-.7 0-1.3.6-1.3 1.3 0 .7.6 1.3 1.3 1.3h4.6c.7 0 1.3-.6 1.3-1.3.1-.7-.5-1.3-1.3-1.3m1.4-5.4h-6c-.7 0-1.3.6-1.3 1.3 0 .7.6 1.3 1.3 1.3h5.9c.7 0 1.3-.6 1.3-1.3.1-.7-.5-1.3-1.2-1.3m-6-2.7h9.8c.7 0 1.3-.6 1.3-1.3 0-.7-.6-1.3-1.3-1.3H7.5c-.7 0-1.3.6-1.3 1.3 0 .7.6 1.3 1.3 1.3m0-5.4h15.3c.7 0 1.3-.6 1.3-1.3 0-.7-.6-1.3-1.3-1.3H7.5c-.7 0-1.3.6-1.3 1.3 0 .7.6 1.3 1.3 1.3m10-5.3h11.6c.7 0 1.3-.6 1.3-1.3 0-.7-.6-1.3-1.3-1.3H17.5c-.7 0-1.3.6-1.3 1.3-.1.6.5 1.3 1.3 1.3m0-5.4h11.6c.7 0 1.3-.6 1.3-1.3 0-.7-.6-1.3-1.3-1.3H17.5c-.7 0-1.3.6-1.3 1.3-.1.7.5 1.3 1.3 1.3"/></svg>