<svg xmlns="http://www.w3.org/2000/svg" viewBox="0 0 74 74"><circle cx="37" cy="37" r="37" fill="#2cd3b8"/><path d="M51.5 34h-.6v9.4h.6c.9 0 1.6-.7 1.6-1.6v-6.3c-.1-.8-.8-1.5-1.6-1.5zM21 35.6v6.1c0 .9.7 1.7 1.6 1.7h.6V34h-.6c-.9 0-1.6.7-1.6 1.6zm28.4-.3c0-.7-.1-1.4-.2-2.1 0-.2-.1-.5-.2-.7v-1.8c0-6.8-5.4-12.3-12-12.3S25 24 25 30.8V32c-.1.2-.1.3-.2.5-.2.9-.4 1.9-.4 2.8v11.6c0 .5.4.8.8.8h2.5c.8 4.4 4.7 7.8 9.3 7.8 3.6 0 6.8-2.1 8.4-5.2 2.7-.2 4.9-2.5 4.9-5.3h-.9v-9.7zm-5.5 12.6H38c-.7 0-1.2.6-1.2 1.2 0 .7.5 1.2 1.2 1.2h4.6C41.3 52 39.3 53 37.1 53c-3.9 0-7-3.2-7-7.2V38c.9-.6 2.5-1.7 3.6-3.2 1.7 1.4 5.1 3.5 10.5 3.7v7.3l-.3 2.1zm-5.1-23.5h-3.6c-2.7 0-5.2 1-7 2.7C29.5 23.5 33 21 37 21c4.1 0 7.7 2.7 9 6.4-1.8-1.8-4.4-3-7.2-3zm-4.2 15.9h-1.9c-.7 0-1.2.6-1.2 1.2 0 .7.5 1.2 1.2 1.2h1.9c.7 0 1.2-.6 1.2-1.2s-.6-1.2-1.2-1.2zm6.8 0h-1.9c-.7 0-1.2.6-1.2 1.2 0 .7.5 1.2 1.2 1.2h1.9c.7 0 1.2-.6 1.2-1.2s-.6-1.2-1.2-1.2z" fill="#fff"/></svg>